<svg id="Layer_1" data-name="Layer 1" xmlns="http://www.w3.org/2000/svg" viewBox="0 0 1280 800"><defs><style>.cls-1{font-size:92.98px;fill:#457b9d;font-family:DMSerifDisplay-Italic, DM Serif Display;font-style:italic;}.cls-2{fill:#e63946;}.cls-3{fill:#1d3557;}</style></defs><title>Artboard 1</title><text class="cls-1" transform="translate(469.28 389.29)">&amp;</text><path class="cls-2" d="M525.72,505.76l-34.36,26.92a20.7,20.7,0,0,1-16.44,4.09l-98.39-17.65a27.08,27.08,0,0,0-22.38,6.06l-2.79,2.38a5.37,5.37,0,0,1-6.2.56l-2.49-1.45,34.37-46a88.48,88.48,0,0,1,34-170.17h87.35v0l0,0L477,332.68H411A66.27,66.27,0,1,0,477.3,399h22.21a88.51,88.51,0,0,1-113.29,84.93l-1.38,1.92a3.64,3.64,0,0,0,2.19,5.68l93.83,20.23a44,44,0,0,0,34.32-6.83l3.62-2.5Z"/><path class="cls-3" d="M486.64,491.92v-3.21l8-2.89a27.86,27.86,0,0,0,10-6.27,27.56,27.56,0,0,0,5.78-10.43l66.15-189.8h27.3L669.05,470.4a34.32,34.32,0,0,0,5.78,10.76q3.21,3.69,10,6.26l3.85,1.29v3.21H607.07v-3.21l4.82-1.61q6.74-2.57,8.19-7.23t-.48-11.07l-15.1-46.25H533.21l-15.42,45.28q-2.25,7.07-1.44,11.24t7.54,6.75l7.07,2.89v3.21Zm48.82-75.79h67.11l-32.43-99.88Z"/><path class="cls-3" d="M769.92,488q-6.17-1.92-8.6-5.77t-2.43-10.28V381.7l1-45.48-3.2-3.2L698,351.92v3.44l4.5,1q6.44,1.29,8.86,4.65t2.41,10.12V471.62c0,4.29-.8,7.7-2.41,10.27s-4.57,4.5-8.86,5.79L698,489v3.21h75.12V489Z"/><path class="cls-3" d="M855.31,492.85q-18.94,0-34-8.51T797.35,458q-8.85-17.82-8.84-45.76,0-28.26,10-46.73T824.8,337.9a71.78,71.78,0,0,1,35.65-9.16A101.11,101.11,0,0,1,882,331a66.43,66.43,0,0,1,18.3,6.74V296q0-6.75-2.09-10t-8.83-4.5l-6.1-1.28V277l58.45-14.13,3.53,2.89-1.28,45v157c0,4.28.74,7.76,2.25,10.43s4.28,4.56,8.35,5.62l2.88,1V488l-54.91,3.53L899.63,480a78.1,78.1,0,0,1-19.75,9.31A80.48,80.48,0,0,1,855.31,492.85ZM873.94,481a41.64,41.64,0,0,0,24.73-8V345.44q-11.89-7.71-24.41-7.71-15.42,0-26.33,17.83T837,411.6q0,38.22,10.27,53.79T873.94,481Z"/><polygon class="cls-2" points="771.34 312.36 721.96 328.3 706.02 278.93 755.39 262.99 757.17 268.49 770.18 308.78 771.34 312.36"/></svg>