<svg id="Layer_1" data-name="Layer 1" xmlns="http://www.w3.org/2000/svg" viewBox="0 0 500 500"><defs><style>.cls-1{fill:#e63946;}</style></defs><title>Artboard 5</title><polygon class="cls-1" points="475.26 347.34 425.89 363.28 409.95 313.9 459.32 297.97 461.1 303.47 474.11 343.76 475.26 347.34"/><path class="cls-1" d="M442.61,394.54,382,442a36.46,36.46,0,0,1-29,7.21L179.52,418.1a47.67,47.67,0,0,0-39.44,10.69L135.16,433a9.47,9.47,0,0,1-10.94,1l-4.39-2.56,60.61-81.14A156,156,0,0,1,240.37,50.2h154v.07l0,0L356.68,89.35H240.37A116.86,116.86,0,1,0,357.23,206.2h39.14A156.06,156.06,0,0,1,196.62,356l-2.43,3.39a6.41,6.41,0,0,0,3.85,10L363.5,405A77.65,77.65,0,0,0,424,393l6.38-4.41Z"/></svg>