<svg id="Layer_1" data-name="Layer 1" xmlns="http://www.w3.org/2000/svg" viewBox="0 0 500 500"><defs><style>.cls-1{font-size:163.96px;fill:#457b9d;font-family:DMSerifDisplay-Italic, DM Serif Display;font-style:italic;}.cls-2{fill:#e63946;}</style></defs><title>Artboard 4</title><text class="cls-1" transform="translate(329.59 189.18)">&amp;</text><path class="cls-2" d="M429.12,394.54,368.53,442a36.45,36.45,0,0,1-29,7.21L166,418.1a47.67,47.67,0,0,0-39.44,10.69L121.67,433a9.47,9.47,0,0,1-10.94,1l-4.39-2.56L167,350.27A156,156,0,0,1,226.88,50.2h154v.07l0,0L343.19,89.35H226.88A116.86,116.86,0,1,0,343.74,206.2h39.14A156.05,156.05,0,0,1,183.14,356l-2.44,3.39a6.41,6.41,0,0,0,3.85,10L350,405a77.65,77.65,0,0,0,60.52-12l6.38-4.41Z"/></svg>