<svg id="Layer_1" data-name="Layer 1" xmlns="http://www.w3.org/2000/svg" viewBox="0 0 500 500"><defs><style>.cls-1{font-size:161.43px;fill:#457b9d;font-family:DMSerifDisplay-Italic, DM Serif Display;font-style:italic;}.cls-2{fill:#e63946;}</style></defs><title>Artboard 3</title><text class="cls-1" transform="translate(321.55 200.83)">&amp;</text><path class="cls-2" d="M419.54,403l-59.65,46.73a35.89,35.89,0,0,1-28.54,7.1L160.52,426.22a47,47,0,0,0-38.84,10.52l-4.84,4.13a9.32,9.32,0,0,1-10.77,1l-4.32-2.51,59.67-79.9A153.61,153.61,0,0,1,220.43,64H372.06v.07l0,0-37.09,38.51H220.43A115,115,0,1,0,335.48,217.59H374A153.63,153.63,0,0,1,177.36,365l-2.4,3.33a6.31,6.31,0,0,0,3.79,9.86l162.91,35.13a76.52,76.52,0,0,0,59.59-11.86l6.28-4.34Z"/><polygon class="cls-2" points="452.2 355.2 402.83 371.14 386.89 321.77 436.26 305.83 438.03 311.33 451.04 351.62 452.2 355.2"/></svg>