<svg id="Layer_1" data-name="Layer 1" xmlns="http://www.w3.org/2000/svg" viewBox="0 0 500 500"><defs><style>.cls-1{fill:#e63946;}.cls-2{font-size:77.56px;fill:#457b9d;font-family:DMSerifDisplay-Italic, DM Serif Display;font-style:italic;}.cls-3{letter-spacing:0em;}.cls-4{letter-spacing:-0.01em;}.cls-5{letter-spacing:-0.02em;}</style></defs><title>Artboard 2</title><path class="cls-1" d="M453.33,420.12,382,476a42.93,42.93,0,0,1-34.12,8.49L143.7,447.84a56.19,56.19,0,0,0-46.43,12.58l-5.79,4.94a11.13,11.13,0,0,1-12.86,1.16l-5.17-3L144.78,368A183.65,183.65,0,0,1,31.71,198.45c0-101.39,82.21-183.6,183.61-183.6H396.57v.09l0,0-44.33,46H215.32A137.53,137.53,0,1,0,352.85,198.45h46.07c0,101.4-82.2,183.61-183.6,183.61a182.72,182.72,0,0,1-51.49-7.35l-2.87,4a7.55,7.55,0,0,0,4.53,11.79l194.75,42a91.42,91.42,0,0,0,71.22-14.18L439,413.1Z"/><text class="cls-2" transform="translate(207.19 125.03)">M<tspan class="cls-3" x="65.38" y="0">E</tspan><tspan x="108.35" y="0">D</tspan><tspan x="0" y="65">T</tspan><tspan class="cls-4" x="46.46" y="65">O</tspan><tspan class="cls-5" x="97.49" y="65">R</tspan><tspan x="146.04" y="65">CH</tspan></text></svg>